HIERARCHY
ROOT Hips
{
 OFFSET 0.000000 0.000000 0.000000
 CHANNELS 6 Xposition Yposition Zposition Yrotation Xrotation Zrotation
 JOINT Chest
 {
  OFFSET 0.000000 9.585900 0.002600
  CHANNELS 3 Yrotation Xrotation Zrotation
  JOINT Chest2
  {
   OFFSET 0.000000 9.601200 -0.005300
   CHANNELS 3 Yrotation Xrotation Zrotation
   JOINT Chest3
   {
    OFFSET 0.000000 9.561800 0.000000
    CHANNELS 3 Yrotation Xrotation Zrotation
    JOINT Chest4
    {
     OFFSET 0.000000 9.552100 0.000000
     CHANNELS 3 Yrotation Xrotation Zrotation
     JOINT Neck
     {
      OFFSET 0.000000 14.453000 0.000000
      CHANNELS 3 Yrotation Xrotation Zrotation
      JOINT Head
      {
       OFFSET 0.000000 8.936500 -0.011300
       CHANNELS 3 Yrotation Xrotation Zrotation
       End Site
       {
        OFFSET 0.000000 17.073600 -0.006000
       }
      }
     }
     JOINT RightCollar
     {
      OFFSET -2.921100 9.558500 0.000000
      CHANNELS 3 Yrotation Xrotation Zrotation
      JOINT RightShoulder
      {
       OFFSET -13.519700 0.000000 0.000000
       CHANNELS 3 Yrotation Xrotation Zrotation
       JOINT RightElbow
       {
        OFFSET 0.000000 -29.696600 0.000000
        CHANNELS 3 Yrotation Xrotation Zrotation
        JOINT RightWrist
        {
         OFFSET 0.000000 -24.004700 0.000000
         CHANNELS 3 Yrotation Xrotation Zrotation
         End Site
         {
          OFFSET 0.000000 -17.728500 0.000000
         }
        }
       }
      }
     }
     JOINT LeftCollar
     {
      OFFSET 2.921100 9.558500 0.000000
      CHANNELS 3 Yrotation Xrotation Zrotation
      JOINT LeftShoulder
      {
       OFFSET 13.519700 0.000000 0.000000
       CHANNELS 3 Yrotation Xrotation Zrotation
       JOINT LeftElbow
       {
        OFFSET 0.000000 -29.696600 0.000000
        CHANNELS 3 Yrotation Xrotation Zrotation
        JOINT LeftWrist
        {
         OFFSET 0.000000 -24.004700 0.000000
         CHANNELS 3 Yrotation Xrotation Zrotation
         End Site
         {
          OFFSET 0.000000 -17.728500 0.000000
         }
        }
       }
      }
     }
    }
   }
  }
 }
 JOINT RightHip
 {
  OFFSET -7.771700 -0.012900 -0.001300
  CHANNELS 3 Yrotation Xrotation Zrotation
  JOINT RightKnee
  {
   OFFSET 0.000000 -40.869800 0.001200
   CHANNELS 3 Yrotation Xrotation Zrotation
   JOINT RightAnkle
   {
    OFFSET 0.000000 -39.717900 0.002100
    CHANNELS 3 Yrotation Xrotation Zrotation
    JOINT RightToe
    {
     OFFSET 0.000000 -4.965400 11.033500
     CHANNELS 3 Yrotation Xrotation Zrotation
     End Site
     {
      OFFSET 0.000000 -1.423100 5.872300
     }
    }
   }
  }
 }
 JOINT LeftHip
 {
  OFFSET 7.771700 -0.012900 -0.001300
  CHANNELS 3 Yrotation Xrotation Zrotation
  JOINT LeftKnee
  {
   OFFSET 0.000000 -40.869800 0.001200
   CHANNELS 3 Yrotation Xrotation Zrotation
   JOINT LeftAnkle
   {
    OFFSET 0.000000 -39.717900 0.002100
    CHANNELS 3 Yrotation Xrotation Zrotation
    JOINT LeftToe
    {
     OFFSET 0.000000 -4.965400 11.033500
     CHANNELS 3 Yrotation Xrotation Zrotation
     End Site
     {
      OFFSET 0.000000 -1.423100 5.872300
     }
    }
   }
  }
 }
}
MOTION
Frames: 11
Frame Time: 0.008333
0.000000 85.388000 0.000000 0.000000 -5.767877 0.000000 0.000000 11.653817 0.000000 0.000000 -5.885947 0.000000 0.000000 -0.000000 0.000000 0.000000 -0.000000 0.000000 0.000000 12.528835 0.000000 0.000000 0.711642 0.000000 0.000000 -0.000000 0.000000 0.000000 0.000000 -90.000000 0.000000 -2.309062 0.000000 0.000000 2.309062 0.000000 0.000000 -0.000000 0.000000 0.000000 -0.000000 90.000000 0.000000 -2.309062 0.000000 0.000000 2.309062 0.000000 0.000000 8.520406 0.000000 0.000000 1.905762 0.000000 -0.000000 -4.658285 0.000000 0.000000 -0.000000 0.000000 0.000000 8.520406 0.000000 0.000000 1.905762 0.000000 -0.000000 -4.658285 0.000000 0.000000 -0.000000 0.000000
-69.637889 48.455190 20.450412 173.482158 -27.759127 -0.010130 -0.084703 13.393367 1.504076 -0.190372 7.683024 1.377367 -0.209334 9.610742 1.721562 -0.190698 7.706889 1.378970 2.536966 16.221388 -1.424595 5.211616 -5.506822 -3.534370 3.954517 4.520793 -5.842125 -3.437702 -17.889492 -7.809122 37.518718 -63.589035 -24.923176 11.444480 8.598815 -38.541495 -2.611817 1.419048 -2.412738 7.425240 -20.621338 -1.361575 -69.217187 -45.445733 46.610941 -8.290125 16.313768 35.241502 28.276893 -50.917081 -38.773816 -119.436532 67.832215 -106.838397 4.514445 -6.532632 4.122251 0.259110 -1.155183 0.130432 -3.085972 -56.511469 14.743746 100.026659 83.202341 96.598630 -7.577048 -11.762221 -0.320610 0.350964 0.959625 0.156637
-69.636785 48.455978 20.444756 173.494964 -27.781341 -0.006560 -0.093807 13.392144 1.497994 -0.193038 7.686970 1.375456 -0.208999 9.592641 1.720183 -0.195705 7.715683 1.379179 2.534782 16.242481 -1.405099 5.202564 -5.483259 -3.513461 3.982672 4.500205 -5.831356 -3.443901 -17.860325 -7.816251 37.485435 -63.567423 -24.899406 11.434242 8.594482 -38.538738 -2.639670 1.437480 -2.411980 7.443121 -20.624402 -1.355019 -69.152257 -45.482549 46.557434 -8.265082 16.304660 35.241537 28.262184 -50.893056 -38.775232 -119.478835 67.833138 -106.879380 4.511971 -6.543221 4.116111 0.254801 -1.159357 0.132442 -3.073941 -56.490135 14.721794 100.060479 83.205302 96.636516 -7.580278 -11.764239 -0.318426 0.352551 0.957015 0.155502
-69.634073 48.457620 20.437024 173.504046 -27.816791 -0.006714 -0.094193 13.401819 1.500115 -0.195432 7.682989 1.373643 -0.214938 9.605391 1.717794 -0.194080 7.696617 1.376846 2.530573 16.274967 -1.393842 5.167460 -5.444280 -3.412605 3.992224 4.500572 -5.820385 -3.429722 -17.857512 -7.821224 37.426972 -63.539980 -24.854557 11.422773 8.584016 -38.517202 -2.703973 1.443035 -2.411125 7.498928 -20.601253 -1.349089 -69.099122 -45.524225 46.508795 -8.254618 16.299558 35.243216 28.236849 -50.859481 -38.760131 -119.530168 67.825899 -106.920147 4.500017 -6.555575 4.095107 0.271809 -1.165900 0.139966 -3.068764 -56.453915 14.712060 100.134206 83.208872 96.710874 -7.574349 -11.770179 -0.312326 0.346409 0.953816 0.150723
-69.632207 48.457284 20.432415 173.511177 -27.829753 -0.001329 -0.089213 13.388163 1.499234 -0.200461 7.678935 1.372384 -0.222935 9.618314 1.714584 -0.189243 7.633776 1.371547 2.521919 16.341113 -1.357191 5.131757 -5.392202 -3.320596 3.993212 4.548986 -5.804259 -3.402121 -17.871317 -7.825355 37.345053 -63.497382 -24.799324 11.427512 8.582571 -38.509853 -2.746642 1.505230 -2.408486 7.517891 -20.609751 -1.336493 -68.949425 -45.597185 46.380416 -8.311136 16.277898 35.251861 28.231277 -50.841830 -38.768785 -119.565503 67.830223 -106.948827 4.497177 -6.568982 4.083053 0.274680 -1.164921 0.141090 -3.057689 -56.437922 14.699116 100.138129 83.217046 96.714430 -7.578682 -11.780236 -0.309774 0.355029 0.961161 0.154402
-69.630056 48.457579 20.426262 173.536747 -27.853358 -0.004947 -0.100146 13.383043 1.497145 -0.211791 7.699569 1.370336 -0.219584 9.589167 1.714715 -0.190267 7.625541 1.367728 2.510575 16.370208 -1.321146 5.103494 -5.338814 -3.245922 4.000509 4.544182 -5.795044 -3.383539 -17.863562 -7.826910 37.223994 -63.465388 -24.712814 11.442034 8.573970 -38.484572 -2.779295 1.535878 -2.406625 7.512176 -20.655030 -1.320763 -68.841875 -45.594469 46.282306 -8.297026 16.242678 35.250982 28.202560 -50.814913 -38.766384 -119.597391 67.830021 -106.974951 4.490079 -6.573717 4.064598 0.285930 -1.172108 0.154984 -3.062684 -56.411453 14.689789 100.153888 83.230507 96.727879 -7.586210 -11.789410 -0.307798 0.361889 0.967996 0.160129
-69.628611 48.457063 20.421264 173.546358 -27.869360 0.000692 -0.099548 13.366965 1.492728 -0.212874 7.698914 1.366738 -0.222190 9.582510 1.713599 -0.191466 7.613591 1.367908 2.499153 16.390828 -1.250245 5.075918 -5.259751 -3.196513 4.010940 4.526322 -5.787683 -3.369706 -17.842594 -7.824300 37.143880 -63.420126 -24.651843 11.427883 8.569122 -38.476923 -2.797030 1.581577 -2.404360 7.502922 -20.704551 -1.311011 -68.755323 -45.587397 46.192017 -8.315653 16.198289 35.251825 28.194033 -50.794136 -38.771497 -119.619142 67.828652 -106.993457 4.487316 -6.584521 4.058626 0.288302 -1.171275 0.153475 -3.045904 -56.396272 14.673688 100.215281 83.252732 96.783441 -7.572623 -11.792788 -0.289008 0.358445 0.968103 0.154295
-69.626448 48.455509 20.418078 173.550724 -27.874691 -0.000264 -0.098373 13.355503 1.494957 -0.199030 7.634891 1.369404 -0.225963 9.565927 1.709556 -0.207479 7.682659 1.370118 2.492507 16.401432 -1.212218 5.040480 -5.186949 -3.112633 4.023845 4.491644 -5.785706 -3.359203 -17.832909 -7.817101 37.065353 -63.370208 -24.587442 11.404253 8.564942 -38.482400 -2.841889 1.590083 -2.400180 7.534345 -20.726333 -1.308676 -68.718322 -45.557364 46.155326 -8.304348 16.145188 35.238990 28.188784 -50.782155 -38.778650 -119.633082 67.836563 -107.001384 4.503691 -6.594267 4.053843 0.262403 -1.169804 0.142871 -3.070917 -56.395431 14.709661 100.345169 83.267051 96.893885 -7.590630 -11.776327 -0.279157 0.375549 0.949996 0.158533
-69.628596 48.454584 20.412987 173.562470 -27.890461 0.016912 -0.109535 13.354426 1.474828 -0.197351 7.607011 1.368328 -0.229969 9.583895 1.708332 -0.208397 7.679621 1.368982 2.484937 16.414220 -1.171293 5.002037 -5.103900 -3.024668 4.039248 4.454474 -5.781493 -3.361738 -17.792874 -7.814353 36.944565 -63.351785 -24.495654 11.374585 8.545114 -38.467799 -2.879065 1.601567 -2.392184 7.556749 -20.771699 -1.311442 -68.643313 -45.517177 46.073354 -8.280302 16.087699 35.233315 28.197202 -50.744582 -38.827469 -119.686253 67.858074 -107.039662 4.537516 -6.615143 4.052173 0.230566 -1.164126 0.132786 -3.053327 -56.381030 14.677422 100.394194 83.268473 96.934001 -7.595594 -11.771055 -0.270999 0.379331 0.941948 0.156975
-69.629423 48.454629 20.405998 173.582456 -27.920702 0.017059 -0.119380 13.309247 1.470600 -0.204474 7.634742 1.365858 -0.232235 9.603764 1.706872 -0.199261 7.592202 1.365690 2.469386 16.520162 -1.140248 4.958300 -5.019264 -2.911966 4.044267 4.498043 -5.766435 -3.339973 -17.801554 -7.810525 36.820771 -63.277170 -24.390519 11.346919 8.537746 -38.457491 -2.923876 1.692771 -2.385935 7.570577 -20.836429 -1.314811 -68.454213 -45.482796 45.902440 -8.291034 15.997086 35.225272 28.176873 -50.702076 -38.839530 -119.749188 67.870504 -107.087171 4.550509 -6.637696 4.047843 0.224961 -1.161872 0.127707 -3.059294 -56.351265 14.672720 100.467154 83.282700 96.996731 -7.604760 -11.769021 -0.260404 0.388795 0.936845 0.159373
-69.630906 48.455032 20.398080 173.588257 -27.957235 0.021140 -0.124410 13.326199 1.464748 -0.201456 7.604353 1.366281 -0.234646 9.594526 1.705769 -0.195397 7.561782 1.365621 2.456489 16.601341 -1.113972 4.914625 -4.923295 -2.793232 4.043694 4.551033 -5.757684 -3.302961 -17.854915 -7.807403 36.646325 -63.202444 -24.251793 11.358052 8.532729 -38.441769 -2.963783 1.751700 -2.375794 7.590624 -20.888124 -1.327661 -68.289541 -45.466829 45.747171 -8.279204 15.930112 35.216011 28.163556 -50.653497 -38.845778 -119.790185 67.878617 -107.112750 4.576868 -6.648541 4.041767 0.209090 -1.164693 0.114034 -3.016195 -56.315745 14.647741 100.525322 83.308317 97.061834 -7.623034 -11.775733 -0.249601 0.391790 0.939643 0.169316
